<svg width="145" height="164" viewBox="0 0 145 164" fill="none" xmlns="http://www.w3.org/2000/svg">
<path fill-rule="evenodd" clip-rule="evenodd" d="M106.127 45.7213C103.197 45.418 100.883 44.8115 95.7923 44.8115C91.6274 44.8115 85.6115 45.1148 75.8934 46.3279C77.7445 46.7828 82.2179 47.6926 86.2285 47.6926C86.537 47.6926 86.9998 47.6926 87.3083 47.6926C90.0849 47.541 95.9466 46.9344 102.117 46.9344C106.899 46.9344 111.681 47.2377 115.537 48.6025C115.537 48.4508 115.537 48.4508 115.537 48.4508C113.377 47.3893 109.058 46.0246 106.127 45.7213ZM85.92 61.0369C93.6328 59.5205 100.574 59.0656 106.127 59.0656C109.213 59.0656 111.835 59.2172 113.84 59.3689C113.84 59.2172 113.84 58.9139 113.84 58.7623C109.984 58.0041 105.973 57.7008 102.425 57.7008C97.3349 57.7008 93.17 58.1557 92.0902 58.1557C90.2391 58.3074 88.2338 58.3074 86.2285 58.459C86.2285 59.3689 86.0743 60.2787 85.92 61.0369ZM103.351 55.5779C108.133 56.0328 111.681 56.6393 114.149 57.2459C114.303 56.3361 114.457 55.2746 114.457 54.2131C111.835 53.6066 107.979 53 103.351 53C102.271 53 101.191 53 99.9572 53.1516C96.2551 53.4549 91.936 53.9098 87.154 54.3648C86.9998 54.8197 86.8455 55.2746 86.6913 55.8811C91.7817 55.7295 96.5636 55.4262 100.266 55.4262C101.5 55.4262 102.58 55.4262 103.351 55.5779ZM65.5583 12.9672C63.553 12.8156 61.7019 12.8156 59.8508 12.8156C47.0477 12.8156 38.5636 15.8484 34.2445 17.9713C34.3987 18.7295 34.3987 19.4877 34.553 20.2459C43.4998 16 53.2179 14.0287 64.787 14.0287C69.5689 14.0287 74.6594 14.332 80.2125 14.9385C82.8349 15.2418 85.4572 15.3934 87.9253 15.3934C101.5 15.3934 111.989 11.6025 115.691 9.93442C115.691 9.63115 115.537 9.47951 115.537 9.17623C108.441 12.6639 99.803 13.877 88.8508 13.877C82.0636 14.0287 74.3508 13.5738 65.5583 12.9672ZM96.5636 41.9303C80.6753 42.082 64.17 45.7213 56.92 45.7213C56.92 45.7213 56.92 45.7213 56.7657 45.7213C57.0742 45.873 57.2285 45.8729 57.3828 45.8729C57.8455 46.0246 71.42 49.9672 84.9945 49.9672C85.303 49.9672 85.6115 49.9672 85.92 49.9672C91.936 49.8156 98.2604 48.9057 104.739 48.9057C108.287 48.9057 111.835 49.209 115.383 50.1189C115.383 49.8156 115.537 49.6639 115.537 49.3607C113.223 48.7541 109.367 48.1475 104.122 48.1475C101.654 48.1475 99.0317 48.2992 96.1008 48.6025C93.4785 48.9057 90.7019 49.0574 87.9253 49.0574C76.6647 49.0574 64.787 47.0861 62.936 46.1762L62.4732 45.8729H62.936C62.936 45.8729 75.4306 44.2049 80.5211 43.5984C82.8349 43.2951 87.7711 42.5369 93.787 42.5369C100.729 42.5369 109.058 43.4467 116 47.0861C116.154 46.6311 116.154 46.3279 116.308 45.8729C113.686 44.3566 107.516 41.7787 97.0264 41.7787C96.7179 41.9303 96.5636 41.9303 96.5636 41.9303ZM64.787 75.5943C64.6328 74.6844 64.4785 73.7746 64.3243 73.0164C62.3189 72.8648 60.4679 72.8648 58.7711 72.8648C45.8136 72.8648 37.6381 75.8975 34.2445 77.5656C34.3987 78.4754 34.553 79.2336 34.7072 79.9918C39.6434 77.5656 47.9732 75.5943 59.8508 75.5943C61.3934 75.4426 63.0902 75.4426 64.787 75.5943ZM65.8668 18.5779C63.8615 18.4262 61.8562 18.4262 60.0051 18.4262C47.2019 18.4262 38.8721 21.3074 34.8615 23.127C34.8615 23.2787 34.8615 23.582 35.0157 23.7336C42.2657 20.2459 51.0583 19.3361 59.0796 19.3361C63.3987 19.3361 67.4094 19.6393 70.9572 19.9426C82.0636 20.8525 96.1008 21.459 96.1008 21.459V21.7623C88.2338 22.6721 80.9838 26.1598 63.7072 28.7377C52.1381 30.5574 41.6487 30.8607 36.0955 30.8607C36.0955 31.4672 36.2498 31.9221 36.2498 32.3771C51.0583 32.2254 73.7338 27.6762 82.5264 25.5533C92.0902 23.2787 101.037 22.6721 109.984 21.7623C113.686 21.459 115.846 20.8525 117.08 20.2459C116.925 19.3361 116.925 18.4262 116.771 17.5164C110.909 19.9426 104.431 20.7008 96.8721 20.7008C88.0796 20.2459 78.053 19.3361 65.8668 18.5779ZM88.6966 12.209C89.4679 12.209 90.0849 12.209 90.8562 12.209C104.276 12.209 112.606 9.02459 115.229 7.96311C114.92 6.59836 114.611 5.53688 114.457 4.77869C107.053 9.32787 98.5689 10.8443 90.2391 10.8443C78.67 10.8443 66.9466 8.11475 57.6913 6.75C55.9945 6.44672 54.1434 6.44672 52.6008 6.44672C44.7338 6.44672 37.9466 8.72131 33.6274 10.6926C33.6274 11.2992 33.6274 12.209 33.7817 13.2705C42.7285 9.78279 50.287 8.72131 57.2285 8.72131C68.7977 8.72131 78.2072 12.0574 88.6966 12.209ZM88.6966 37.8361C66.7923 39.8074 54.1434 44.2049 45.6594 44.3566C48.5902 45.7213 61.0849 51.0287 73.8881 52.5451C75.7391 52.6967 77.436 52.8484 79.1328 52.8484C86.3828 52.8484 92.8615 51.332 100.729 51.332C104.893 51.332 109.521 51.7869 114.92 53.1516C114.92 52.6967 115.074 52.3934 115.074 51.9385C112.143 51.332 107.361 50.5738 101.346 50.5738C99.3402 50.5738 97.1806 50.7254 95.0211 50.8771C89.1594 51.332 84.2232 52.0902 78.67 52.0902C71.1115 52.0902 62.4732 50.7254 49.3615 45.2664L48.8987 45.1148L49.5157 44.9631C49.5157 44.9631 62.7817 42.6885 72.4998 41.1721C77.5902 40.4139 85.4572 39.2008 93.787 39.2008C101.808 39.2008 110.138 40.4139 116.617 44.2049C116.771 43.4467 116.771 42.8402 116.925 42.082C114.149 40.4139 107.824 37.5328 96.2551 37.5328C93.787 37.5328 91.3189 37.5328 88.6966 37.8361ZM63.2445 37.9877C51.8296 39.5041 44.1168 39.6557 40.1062 39.6557C38.1008 39.6557 37.0211 39.6557 36.7125 39.5041C36.7125 39.5041 36.7125 39.5041 36.7125 39.6557C36.7125 40.2623 36.7126 40.7172 36.5583 41.3238C36.8668 41.3238 37.6381 41.3238 39.0264 41.3238C43.8083 41.3238 55.0689 40.7172 74.9679 37.0779C82.3721 35.7131 88.6966 35.1066 94.2498 35.1066C106.282 35.1066 113.994 37.6844 117.234 39.0492C117.234 38.7459 117.234 38.5943 117.388 38.291C109.521 35.2582 102.117 34.3484 94.8668 34.3484C83.9147 34.5 73.5796 36.7746 63.2445 37.9877ZM115.691 84.0861C115.691 83.7828 115.537 83.4795 115.537 83.0246C112.452 83.3279 107.824 83.6311 101.808 83.6311C97.7977 83.6311 93.17 83.4795 87.9253 83.1762C88.0796 83.7828 88.0796 84.541 88.2338 85.1475C91.1647 85.4508 94.0955 85.6025 96.8721 85.6025C104.276 85.6025 111.218 84.8443 115.691 84.0861ZM106.282 67.709C109.058 67.709 111.681 67.8607 113.686 68.1639C113.686 67.5574 113.686 66.9508 113.686 66.4959C111.372 66.1926 109.058 66.041 107.053 66.041C104.431 66.041 102.117 66.1926 99.9572 66.3443C96.2551 66.6475 91.6274 67.709 86.0742 68.3156C86.0742 68.9221 86.2285 69.3771 86.2285 69.9836C92.0902 69.2254 97.9519 68.0123 103.968 67.709C104.739 67.8607 105.51 67.709 106.282 67.709ZM113.686 64.6762C113.686 64.2213 113.686 63.7664 113.686 63.1598C111.989 62.8566 110.138 62.7049 108.287 62.7049C101.191 62.7049 93.17 64.6762 85.92 66.041C85.92 66.3443 85.92 66.6475 85.92 66.7992C93.787 65.8893 102.271 64.2213 108.75 64.2213C110.601 64.2213 112.298 64.373 113.686 64.6762ZM106.899 61.3402C109.83 61.3402 111.989 61.6434 113.84 61.7951C113.84 61.4918 113.84 61.1885 113.84 60.8852C111.835 60.582 109.83 60.4303 107.824 60.4303C100.42 60.4303 92.553 62.0984 85.92 63.3115V63.4631C85.92 63.6148 85.92 63.7664 85.92 63.918C90.2391 63.1598 94.5583 62.25 100.42 61.4918C102.888 61.4918 105.048 61.3402 106.899 61.3402ZM98.7232 82.873C105.51 82.873 111.218 82.2664 115.074 81.6598C114.92 81.0533 114.92 80.4467 114.766 79.8402C111.989 80.1434 108.75 80.2951 105.048 80.2951C99.9572 80.2951 94.0955 79.9918 87.3083 79.5369C87.4625 80.5984 87.6168 81.5082 87.7711 82.418H87.9253C91.7817 82.7213 95.3296 82.873 98.7232 82.873ZM113.994 73.9262C113.994 73.3197 113.84 72.8648 113.84 72.2582C113.069 72.2582 112.143 72.4098 111.064 72.4098C106.899 72.7131 101.808 73.0164 97.1806 73.0164C95.3296 73.0164 93.6328 73.0164 92.2445 72.8648V72.5615C92.2445 72.5615 101.191 71.0451 108.133 71.0451C108.904 71.0451 109.675 71.0451 110.447 71.0451C111.681 71.1967 112.76 71.1967 113.686 71.1967C113.686 70.7418 113.686 70.1352 113.532 69.6803C110.138 69.0738 107.053 68.9221 104.431 68.9221C97.7977 68.9221 92.7072 70.1352 86.0742 70.7418C86.2285 72.1066 86.3828 73.4713 86.537 74.6844C90.2391 75.1393 93.787 75.291 96.8721 75.291C105.048 75.5943 111.064 74.5328 113.994 73.9262ZM114.457 77.8689C114.303 77.2623 114.303 76.8074 114.303 76.2008C111.989 76.8074 108.441 77.2623 103.197 77.2623C99.0317 77.2623 93.6328 76.959 86.8455 76.0492C86.9998 76.6557 86.9998 77.2623 87.154 77.8689C92.8615 78.4754 97.6434 78.7787 101.654 78.7787C107.516 78.9303 111.681 78.4754 114.457 77.8689ZM65.7125 79.6885C65.5583 78.9303 65.404 78.3238 65.2498 77.5656C65.2498 77.4139 65.0955 77.2623 65.0955 77.1107C62.6274 76.959 60.4679 76.8074 58.3083 76.8074C45.6594 76.8074 38.2551 80.2951 35.17 81.9631C35.3242 82.7213 35.3243 82.873 35.6328 83.6311C43.1913 80.4467 50.287 79.3852 57.2285 79.3852C60.0051 79.2336 62.936 79.3853 65.7125 79.6885ZM66.3296 82.7213C66.1753 82.1148 66.1753 81.6598 66.0211 81.0533C63.3987 80.9016 60.9306 80.75 58.6168 80.75C46.5849 80.75 39.1806 83.0246 35.9413 84.3894C36.0955 85.1475 36.404 85.9057 36.7125 86.8156C45.9679 83.6311 53.9891 82.5697 61.2391 82.5697C62.936 82.5697 64.6328 82.5697 66.3296 82.7213ZM59.2338 84.2377C47.9732 84.2377 40.8774 86.3607 37.0211 87.8771C37.0211 88.0287 37.0211 88.1803 37.1753 88.1803C38.2551 87.7254 44.8881 85.2992 55.8402 85.1475C57.8455 84.9959 60.0051 84.9959 62.0104 84.9959C63.553 84.9959 65.0955 84.9959 66.6381 85.1475C66.6381 84.9959 66.6381 84.6926 66.6381 84.541C63.8615 84.3893 61.3934 84.2377 59.2338 84.2377ZM73.1168 59.0656C74.8136 59.2172 76.3562 59.2172 77.8987 59.3689L78.67 58.6107C76.5104 58.6107 74.3508 58.459 72.1913 58.1557L73.1168 59.0656ZM76.9732 28.7377C58.4626 33.5902 44.2711 34.3484 38.2551 34.3484C37.6381 34.3484 37.0211 34.3484 36.5583 34.3484C36.5583 34.9549 36.7125 35.5615 36.7125 36.0164C37.7923 36.0164 39.0264 36.168 40.1062 36.168C60.3136 36.168 78.3615 28.4344 96.1008 26.3115C99.0317 26.0082 101.654 25.8566 103.968 25.8566C111.064 25.8566 115.383 27.2213 117.697 28.5861C117.697 28.2828 117.697 27.9795 117.697 27.6762C114.457 26.3115 109.213 25.25 102.271 25.25C95.3296 25.0984 86.6913 26.1598 76.9732 28.7377ZM67.8721 54.0615L69.1062 55.123C69.2604 55.123 69.5689 55.2746 69.7232 55.2746C73.1168 55.8811 77.1274 56.0328 81.1381 56.0328L82.5264 54.668C81.2923 54.668 79.904 54.8197 78.5157 54.8197C75.2764 54.668 71.5742 54.5164 67.8721 54.0615ZM64.0157 71.3484C64.0157 71.0451 63.8615 70.5902 63.8615 70.2869C62.1647 70.1352 60.3136 70.1352 58.7711 70.1352C47.0477 70.1352 38.1008 73.0164 33.936 74.6844C33.936 74.9877 33.936 75.4426 34.0902 75.7459C43.3455 72.2582 50.7498 71.0451 57.3828 71.0451C59.6966 71.0451 61.8562 71.0451 64.0157 71.3484ZM95.7923 86.8156C93.4785 86.8156 90.8562 86.8156 88.2338 86.6639C88.2338 86.8156 88.2338 86.9672 88.2338 87.1189C91.3189 87.4221 94.2498 87.5738 97.1806 87.5738C104.739 87.5738 111.218 86.8156 116 85.9057C116 85.7541 115.846 85.6025 115.846 85.2992C111.064 86.0574 104.276 86.8156 95.7923 86.8156ZM75.5849 61.4918L76.6647 60.4303C76.0477 60.4303 75.2764 60.582 74.6594 60.582L75.5849 61.4918ZM63.8615 53.3033C60.9306 52.6967 57.9998 51.9385 55.0689 50.7254C45.1966 46.9344 39.4891 45.418 36.2498 44.6598C36.0955 45.418 36.0955 46.0246 35.9413 46.7828C36.2498 46.7828 36.5583 46.7828 36.8668 46.7828C43.8083 46.7828 53.6806 51.332 63.8615 54.0615C63.8615 53.7582 63.8615 53.4549 63.8615 53.3033ZM63.7072 68.7705C63.7072 68.3156 63.553 68.0123 63.553 67.5574C59.0796 66.9508 55.2232 66.6475 51.6753 66.6475C42.42 66.6475 36.404 68.4672 33.7817 69.5287C33.7817 70.7418 33.7817 71.6516 33.7817 72.7131C41.6487 69.5287 49.67 68.6189 56.6115 68.6189C59.2338 68.4672 61.5477 68.6189 63.7072 68.7705ZM33.7817 66.041C38.1008 65.1312 42.2657 64.6762 46.4306 64.6762C52.1381 64.6762 57.6913 65.4344 63.3987 66.041C63.3987 65.5861 63.3987 65.1311 63.2445 64.6762C56.92 63.4631 51.3668 63.0082 46.5849 63.0082C41.186 63.0082 36.8668 63.6148 33.7817 64.2213C33.7817 64.9795 33.7817 65.4344 33.7817 66.041ZM33.936 61.9467C37.0211 61.3402 40.2604 61.0369 43.3455 61.0369C50.5955 61.0369 57.6913 62.4016 63.2445 63.6148C63.2445 63.1598 63.2445 62.5533 63.2445 62.0984C54.4519 60.2787 47.8189 59.6721 42.7285 59.6721C39.0264 59.6721 36.0955 59.9754 33.936 60.4303C33.936 60.8853 33.936 61.3402 33.936 61.9467ZM63.3987 59.6721C62.0104 59.3689 60.6221 59.0656 59.0796 58.6107C50.1328 56.1844 43.654 55.5779 39.3349 55.5779C37.1753 55.5779 35.6328 55.7295 34.553 55.8811C34.553 56.1844 34.3987 56.6393 34.3987 56.9426C36.404 56.6393 38.2551 56.6393 40.1062 56.6393C48.5902 56.6393 55.8402 59.2172 63.3987 60.8852C63.2445 60.4303 63.3987 60.1271 63.3987 59.6721ZM44.1168 25.0984C43.4998 25.0984 43.037 25.0984 42.5743 25.0984V24.7951C42.5743 24.7951 51.2125 23.2787 57.9998 23.2787C58.7711 23.2787 59.5423 23.2787 60.3136 23.2787C62.936 23.4303 66.1753 23.4303 69.1062 23.4303C72.4998 23.4303 75.2764 23.4303 75.2764 23.4303V23.7336C75.2764 23.7336 65.2498 25.4016 56.4572 25.4016C52.7551 25.5533 47.6647 25.0984 44.1168 25.0984ZM35.787 28.1311C35.787 28.2828 35.787 28.2828 35.787 28.4344C43.654 27.0697 58.6168 26.7664 63.8615 26.3115C69.5689 25.8566 76.9732 24.1885 78.9785 23.7336C80.3668 23.4303 83.4519 22.6721 85.303 22.2172C83.7604 22.2172 81.1381 22.3689 77.8987 22.3689C73.4253 22.3689 67.7179 22.2172 61.7019 21.7623C60.1594 21.6107 58.7711 21.6107 57.3828 21.6107C47.3562 21.6107 39.6434 24.1885 35.3243 26.0082C35.3243 26.4631 35.4785 26.918 35.4785 27.3729C37.4838 26.6148 40.8774 25.7049 44.5796 25.7049C45.0423 25.7049 45.5051 25.7049 45.8136 25.7049C48.436 25.8566 50.5955 26.0082 52.1381 26.0082C53.6806 26.0082 54.6062 26.0082 55.0689 25.8566H55.2232V26.1598C55.2232 26.1598 55.0689 26.1598 54.9147 26.1598C53.3721 26.3115 41.0317 27.2213 35.787 28.1311ZM57.2285 54.5164C45.6594 50.2705 38.5636 49.6639 35.787 49.6639C35.6328 49.6639 35.4785 49.6639 35.4785 49.6639C35.3243 50.5738 35.17 51.6352 35.0157 52.6967C36.2498 52.5451 37.4838 52.5451 38.5636 52.5451C45.5051 52.5451 51.0583 54.668 58.7711 56.9426C60.1594 57.3975 61.8562 57.7008 63.553 58.0041C63.553 57.5492 63.553 57.0943 63.7072 56.6393C61.5477 56.0328 59.3881 55.4262 57.2285 54.5164ZM70.803 33.4385C55.5317 37.0779 44.8881 37.5328 39.9519 37.5328C38.1008 37.5328 37.0211 37.3811 37.0211 37.3811C37.0211 37.3811 36.8668 37.3811 36.5583 37.3811C36.5583 37.5328 36.5583 37.8361 36.5583 37.9877C38.5636 38.1393 40.4147 38.1393 42.1115 38.1393C56.1487 38.1393 64.17 35.4098 82.9891 32.6803C86.8455 32.0738 90.3934 31.9221 93.787 31.9221C105.973 31.9221 114.457 34.9549 117.234 36.168C117.234 35.7131 117.234 35.2582 117.388 34.6516C109.521 31.6189 102.425 30.1025 94.0955 30.1025C87.4625 30.1025 80.0583 31.1639 70.803 33.4385Z" fill="#3E778C"/>
<path fill-rule="evenodd" clip-rule="evenodd" d="M21.2874 120.328C21.5959 123.816 21.9044 125.939 21.9044 126.697C22.2129 129.275 22.3672 131.246 22.6757 132.611C22.8299 133.975 23.1384 135.795 23.4469 138.07L22.2129 137.918H20.9789C20.8246 136.25 20.6703 134.582 20.5161 132.914C20.3618 131.398 20.2076 129.73 20.0533 128.213C19.8991 126.697 19.7448 125.484 19.5906 124.422C18.5108 126.394 17.5852 127.91 16.814 129.426C15.8884 131.094 15.1172 132.459 14.5001 133.672C13.8831 135.037 13.2661 136.25 12.6491 137.463H12.3406L10.9523 134.582C10.3352 133.217 9.71822 132.156 9.25545 131.246C8.79269 130.336 8.17567 129.123 7.40439 127.758C6.78737 126.697 6.17035 125.484 5.55333 124.422C5.24482 126.848 4.93631 129.426 4.62779 131.853C4.31928 134.43 4.16503 136.402 4.16503 137.766H3.2395H2.31396C2.62248 135.492 3.2395 132.307 3.70226 128.213C4.31928 124.119 4.62779 121.389 4.78205 120.025H5.39907C6.3246 121.844 7.09588 123.209 7.7129 124.422C8.48418 125.787 9.25545 127.303 10.181 128.971C11.2608 130.791 12.1863 132.459 12.9576 133.672C15.4257 129.123 18.048 124.574 20.5161 120.176H21.2874V120.328Z" fill="#3E778C"/>
<path fill-rule="evenodd" clip-rule="evenodd" d="M33.9364 123.361L31.0055 130.033H36.8672L33.9364 123.361ZM42.7289 138.07L41.3406 137.918H39.9523C39.3353 136.098 38.7183 134.734 38.4098 133.672C38.1013 132.914 37.7927 132.156 37.1757 130.943H30.5427C29.463 133.521 29.0002 134.885 28.8459 135.189C28.5374 135.947 28.2289 136.857 27.9204 137.918H26.9949H26.0693L34.2449 120.025H34.8619L42.7289 138.07Z" fill="#3E778C"/>
<path fill-rule="evenodd" clip-rule="evenodd" d="M48.8987 128.971C48.8987 128.971 49.2073 128.971 49.67 128.971C49.8243 128.971 49.9785 128.971 50.1328 128.971H50.5956C50.7498 128.971 50.9041 128.971 51.0583 128.971C51.2126 128.971 51.3668 128.971 51.5211 128.971C52.7551 128.82 53.8349 128.365 54.6062 127.607C55.3775 126.848 55.686 125.939 55.686 124.725C55.686 123.816 55.5317 123.057 55.069 122.451C54.6062 121.844 53.9892 121.389 53.3722 121.389C52.7551 121.389 52.2924 121.238 51.8296 121.238C51.5211 121.238 51.2126 121.238 50.9041 121.238C50.5956 121.238 50.1328 121.238 49.8243 121.238C49.5158 121.238 49.2073 121.238 48.8987 121.238V128.971ZM48.8987 138.07L47.6647 137.918H46.4307V120.328H51.2126C53.8349 120.328 55.5317 120.631 56.4573 121.238C57.3828 121.844 57.9998 122.906 57.9998 124.574C57.9998 126.09 57.537 127.303 56.6115 128.061C55.686 128.82 54.2977 129.426 52.4466 129.73C52.2924 129.73 51.9839 129.881 51.5211 129.881C51.0583 129.881 50.9041 129.881 50.9041 129.881C50.4413 129.881 50.1328 129.881 49.8243 129.881C49.5158 129.881 49.2073 129.881 48.8987 129.881V138.07Z" fill="#3E778C"/>
<path fill-rule="evenodd" clip-rule="evenodd" d="M69.8775 126.09L67.5637 128.365C69.7232 130.791 71.8828 133.066 73.8881 135.492L76.0477 138.07V138.221L74.6594 138.07H73.1168C72.8083 137.615 72.4998 137.311 72.1913 136.857C71.8828 136.402 71.5743 136.098 71.2658 135.643L65.7126 129.123C65.5583 129.123 65.5583 128.971 65.4041 128.971H65.2498V138.07L64.0158 137.918H62.7817V120.328H64.0158H65.2498V128.365C65.2498 128.365 65.4041 128.516 65.5583 128.365C65.7126 128.365 65.8668 128.213 66.0211 128.213C66.1754 128.061 66.4839 127.91 66.9466 127.455C67.1009 127.303 67.2551 127.152 67.4094 127L73.8881 120.48H74.9679H76.0477L69.8775 126.09Z" fill="#3E778C"/>
<path fill-rule="evenodd" clip-rule="evenodd" d="M82.681 128.061H86.6917C87.0002 128.061 87.4629 128.061 88.08 128.061C88.697 128.061 89.0055 128.061 89.1597 128.061L89.0055 128.668L89.1597 129.426C88.8512 129.426 88.3885 129.426 87.7714 129.275C87.1544 129.275 86.8459 129.123 86.6917 129.123H82.681V136.705C83.298 136.705 84.2236 136.705 85.4576 136.705C86.6917 136.705 87.4629 136.705 87.4629 136.705C87.9257 136.705 88.3885 136.705 88.5427 136.705C88.697 136.705 89.1597 136.553 89.931 136.553L89.7768 137.311L89.931 138.07H80.3672V120.328H89.7768L89.6225 121.086L89.7768 121.844C89.314 121.693 88.8512 121.693 88.5427 121.541C88.2342 121.541 87.7714 121.389 87.4629 121.389H82.8353V128.061H82.681Z" fill="#3E778C"/>
<path fill-rule="evenodd" clip-rule="evenodd" d="M101.037 138.07L99.8033 137.918H98.5693V121.541C97.181 121.541 96.2554 121.541 95.6384 121.541C95.0214 121.541 94.0959 121.693 92.8618 121.844L93.0161 121.086L92.8618 120.328H106.436L106.282 121.086L106.436 121.844C105.819 121.844 104.894 121.693 103.968 121.693C103.043 121.693 101.963 121.541 100.883 121.541V138.07H101.037Z" fill="#3E778C"/>
<path fill-rule="evenodd" clip-rule="evenodd" d="M113.223 128.971C113.223 128.971 113.532 128.971 113.995 128.971C114.149 128.971 114.303 128.971 114.457 128.971H114.92C115.075 128.971 115.229 128.971 115.383 128.971C115.537 128.971 115.692 128.971 115.846 128.971C117.08 128.82 118.16 128.365 118.931 127.607C119.702 126.848 120.011 125.939 120.011 124.725C120.011 123.816 119.856 123.057 119.394 122.451C118.931 121.844 118.314 121.389 117.697 121.389C117.08 121.389 116.617 121.238 116.154 121.238C115.846 121.238 115.537 121.238 115.229 121.238C114.766 121.238 114.457 121.238 114.149 121.238C113.84 121.238 113.532 121.238 113.223 121.238V128.971ZM113.223 138.07L111.989 137.918H110.755V120.328H115.537C118.16 120.328 119.856 120.631 120.782 121.238C121.707 121.844 122.325 122.906 122.325 124.574C122.325 126.09 121.862 127.303 120.936 128.061C120.011 128.82 118.622 129.426 116.771 129.73C116.617 129.73 116.309 129.881 115.846 129.881C115.537 129.881 115.229 129.881 115.229 129.881C114.766 129.881 114.457 129.881 114.149 129.881C113.84 129.881 113.532 129.881 113.223 129.881V138.07Z" fill="#8C6D4C"/>
<path fill-rule="evenodd" clip-rule="evenodd" d="M127.261 120.328C127.261 120.328 127.415 120.328 127.724 120.328C127.878 120.328 128.186 120.328 128.495 120.328H129.729V133.824H130.037C130.037 133.824 130.346 133.521 130.963 132.914C131.271 132.611 132.043 131.852 133.122 130.639C134.048 129.73 134.819 128.82 135.436 128.061C136.208 127.152 137.133 126.09 138.367 124.725C138.367 124.725 139.293 123.664 140.989 121.693C141.761 120.783 142.069 120.328 142.069 120.328H143.303V138.07L142.069 137.918H140.835V123.816H140.372C140.064 124.119 139.755 124.422 139.601 124.725C138.984 125.484 138.213 126.242 137.596 127C136.362 128.213 135.591 129.275 134.819 130.033C133.431 131.549 132.505 132.762 131.734 133.672C130.809 134.734 130.037 135.643 129.42 136.553C128.803 137.311 128.341 137.918 128.186 138.07H127.415V120.328H127.261Z" fill="#8C6D4C"/>
<path fill-rule="evenodd" clip-rule="evenodd" d="M85.3034 94.8524C86.3832 91.8197 86.5374 89.8483 86.5374 88.1803C86.5374 88.0287 86.5374 87.7254 86.5374 87.5737C86.5374 87.1188 86.3832 86.8156 86.3832 86.3606C86.2289 85.4508 86.2289 84.6926 86.0746 83.7828C84.9949 75.5942 83.298 60.127 85.6119 54.0615L83.7608 55.8811C83.4523 58.6106 82.9895 63.6147 83.298 67.1024C83.7608 72.1065 84.0693 81.2049 84.9949 85.9057C85.9204 90.3033 81.6012 102.283 82.5268 109.258C82.9895 109.258 83.4523 109.258 83.9151 109.258C83.7608 106.984 83.7608 99.7049 85.3034 94.8524ZM87.3087 95.0041C87.1544 94.0942 87.1544 93.1844 87.0002 92.2746C86.5374 95.459 85.1491 98.7951 84.8406 101.525C84.5321 103.951 85.4576 107.287 86.0746 109.107C86.6917 109.107 87.3087 109.107 87.9257 109.107C87.1544 107.893 86.3832 105.922 86.0746 103.193C85.7661 99.8565 86.8459 97.4303 87.3087 95.0041ZM83.1438 89.8483C84.8406 83.7828 82.681 74.3811 81.447 66.4959C80.83 62.5533 80.9842 59.9754 81.2927 58.3074L79.9044 59.6721C79.9044 62.25 80.2129 67.4057 81.7555 73.0164C84.0693 81.9631 82.3725 90 81.447 94.2459C80.5215 98.0369 79.5959 103.496 80.6757 109.107C80.9842 109.107 81.2927 109.107 81.6012 109.107C80.9842 105.012 81.7555 95.0041 83.1438 89.8483ZM69.4151 95.3074C69.7236 91.0615 69.7236 86.3606 69.5693 81.8115C69.2608 77.2623 67.8725 66.3442 67.8725 60.8852C67.8725 58.6106 67.8725 56.4877 68.0268 54.8197L67.564 53.7582C67.564 53.9098 67.564 54.0615 67.564 54.3647C67.564 54.5164 67.564 54.668 67.564 54.668C67.564 54.8197 67.564 55.1229 67.564 55.2746C67.564 55.4262 67.564 55.5778 67.564 55.7295C67.564 55.8811 67.564 56.1844 67.564 56.336C67.564 56.6393 67.564 57.0942 67.564 57.5492C67.564 57.7008 67.564 58.0041 67.564 58.1557C67.564 58.459 67.564 58.7623 67.564 59.0656C67.564 59.2172 67.564 59.5205 67.564 59.6721C67.564 59.9754 67.564 60.4303 67.564 60.7336C67.564 60.8852 67.564 61.1885 67.564 61.3401C67.564 61.9467 67.564 62.4016 67.564 63.0082C67.564 63.1598 67.564 63.3115 67.564 63.4631C67.564 63.918 67.564 64.3729 67.564 64.9795C67.564 65.1311 67.564 65.4344 67.564 65.586C67.564 66.041 67.564 66.4959 67.564 67.1024C67.564 67.2541 67.564 67.5574 67.564 67.709C67.564 68.4672 67.564 69.0738 67.7183 69.832C67.7183 69.9836 67.7183 69.9836 67.7183 70.1352C67.7183 70.7418 67.8725 71.3483 67.8725 72.1065C67.8725 72.4098 67.8725 72.5615 67.8725 72.8647C67.8725 73.4713 68.0268 73.9262 68.0268 74.5328C68.0268 74.836 68.0268 74.9877 68.0268 75.291C68.181 76.0492 68.181 76.959 68.3353 77.7172C70.0321 92.1229 68.3353 94.0942 67.7183 100.615C67.2555 105.467 63.3991 106.984 58.1544 107.742C24.2183 109.258 2.46826 115.627 2.46826 115.627L2.62252 117.295C24.5268 111.988 45.5055 109.865 64.3246 109.258H68.3353C68.3353 105.922 69.1066 98.9467 69.4151 95.3074ZM79.4417 98.0369C80.9842 87.877 82.8353 82.2664 81.447 75.5942C80.5215 71.1967 77.8991 65.8893 78.2076 61.3401L76.6651 63.0082C76.8193 64.6762 77.4363 67.8606 78.8246 70.2869C80.3672 73.168 80.6757 83.4795 80.2129 86.8156C79.7502 89.8483 76.5108 103.648 78.0534 109.107C78.6704 109.107 79.1332 109.107 79.7502 109.107C79.1332 107.287 78.6704 103.648 79.4417 98.0369ZM69.8778 58.6106C69.8778 58.459 69.8778 58.459 69.8778 58.459L68.9523 57.3975C68.798 57.8524 66.33 63.1598 70.1863 78.9303C73.8885 93.791 70.0321 104.557 68.6438 109.41C69.1066 109.41 69.4151 109.41 69.8778 109.41C70.6491 106.377 72.3459 99.0983 72.6544 94.5492C72.9629 88.3319 73.8885 79.6885 71.2661 73.7746C68.798 67.709 68.798 62.0983 69.8778 58.6106ZM76.3566 103.799C76.9736 99.25 79.4417 90 79.2874 83.1762C79.1332 77.1106 75.5853 71.6516 75.2768 63.918L74.3512 62.8565C74.197 68.6188 77.7449 77.7172 78.2076 81.6598C78.6704 86.5123 77.5906 90.4549 77.5906 90.4549C77.4363 84.8442 72.3459 66.3442 72.1917 64.2213C72.1917 63.3115 72.3459 62.25 72.6544 61.1885L71.7289 60.127C70.9576 61.3401 70.3406 63.918 70.9576 66.041C71.7289 69.0738 73.4257 75.291 74.197 80.5983C74.9683 85.9057 75.431 85.9057 75.5853 92.1229C75.5853 97.2787 75.1225 105.164 75.431 109.258C75.8938 109.258 76.3566 109.258 76.8193 109.258C76.3566 107.893 76.048 105.922 76.3566 103.799ZM95.33 107.893C93.7874 107.59 92.0906 107.742 91.0108 106.832C88.8512 105.619 87.9257 106.529 87.6172 101.828C87.4629 100.463 87.4629 99.5533 87.4629 98.0369C87.4629 100.16 87.1544 101.979 87.3087 103.648C87.7715 106.225 88.2342 107.893 89.1598 109.258C91.6278 109.258 94.0959 109.41 96.2555 109.561C124.793 111.078 143.612 116.84 143.612 116.84L143.92 115.324C126.644 110.775 110.138 108.652 95.33 107.893Z" fill="#8C6D4C"/>
</svg>
