<svg width="56" height="57" viewBox="0 0 56 57" fill="none" xmlns="http://www.w3.org/2000/svg">
<g clip-path="url(#clip0_14_136)">
<g filter="url(#filter0_i_14_136)">
<path d="M39.6673 57H16.3456C14.9963 56.9993 13.663 56.7018 12.4371 56.1279C11.2113 55.554 10.1217 54.7173 9.24295 53.675C8.3766 52.6555 7.7369 51.4575 7.3676 50.163C6.99831 48.8684 6.90814 47.508 7.10328 46.1747C8.35607 39.229 11.9962 32.9638 17.3723 28.5C11.9961 24.0347 8.35676 17.7676 7.10561 10.8205C6.91086 9.48816 7.001 8.12873 7.36987 6.83511C7.73874 5.54149 8.37766 4.34418 9.24295 3.325C10.1217 2.28272 11.2113 1.446 12.4371 0.872123C13.663 0.298241 14.9963 0.000745374 16.3456 0L39.6673 0C41.0165 0.00121634 42.3496 0.298923 43.5755 0.872772C44.8013 1.44662 45.8909 2.28309 46.7699 3.325C47.6353 4.34375 48.2747 5.54051 48.6443 6.83363C49.014 8.12676 49.1053 9.48582 48.9119 10.8181C47.648 17.7673 44.0005 24.0336 38.6196 28.5C43.9974 32.9702 47.6408 39.239 48.9003 46.189C49.0938 47.5217 49.0026 48.8811 48.6329 50.1747C48.2633 51.4682 47.6239 52.6654 46.7583 53.6845C45.8797 54.7232 44.7915 55.5569 43.5679 56.1291C42.3442 56.7012 41.0138 56.9983 39.6673 57V57ZM39.6673 4.75H16.3456C15.6688 4.74958 14.9999 4.8979 14.3845 5.18482C13.7692 5.47175 13.222 5.89051 12.7803 6.4125C12.349 6.91228 12.0302 7.50202 11.8464 8.14039C11.6626 8.77876 11.6182 9.45031 11.7163 10.108C12.5936 16.0455 16.2056 21.603 22.4496 26.6309C22.7255 26.8532 22.9484 27.1362 23.1017 27.4587C23.2549 27.7811 23.3345 28.1347 23.3345 28.4929C23.3345 28.8511 23.2549 29.2046 23.1017 29.5271C22.9484 29.8495 22.7255 30.1325 22.4496 30.3549C16.2056 35.3875 12.6006 40.9497 11.7163 46.8849C11.6172 47.5437 11.6611 48.2166 11.8449 48.8563C12.0287 49.496 12.348 50.0869 12.7803 50.5875C13.222 51.1095 13.7692 51.5283 14.3845 51.8152C14.9999 52.1021 15.6688 52.2504 16.3456 52.25H39.6673C40.3441 52.2506 41.0131 52.1023 41.6285 51.8154C42.2438 51.5285 42.791 51.1096 43.2326 50.5875C43.6638 50.0886 43.9825 49.4997 44.1663 48.8621C44.3501 48.2245 44.3946 47.5537 44.2966 46.8968C43.4263 40.9901 39.8166 35.4279 33.5633 30.362C33.2891 30.1395 33.0677 29.8571 32.9155 29.5355C32.7633 29.214 32.6843 28.8617 32.6843 28.5047C32.6843 28.1478 32.7633 27.7955 32.9155 27.474C33.0677 27.1524 33.2891 26.87 33.5633 26.6475C39.8189 21.5816 43.4286 16.0194 44.2966 10.1104C44.3943 9.45143 44.3485 8.77869 44.1627 8.13971C43.9768 7.50073 43.6553 6.91111 43.2209 6.4125C42.7806 5.89191 42.2353 5.47396 41.6221 5.18708C41.0089 4.9002 40.3422 4.75113 39.6673 4.75V4.75ZM36.5896 47.5H19.4093C19.0275 47.4998 18.6516 47.4043 18.3145 47.2218C17.9775 47.0393 17.6895 46.7754 17.476 46.4533C17.2625 46.1312 17.1299 45.7606 17.0898 45.3742C17.0498 44.9877 17.1035 44.5971 17.2463 44.2367C19.0735 40.2209 21.8574 36.7333 25.3453 34.0908L26.5539 33.1123C26.9668 32.778 27.4789 32.596 28.0064 32.596C28.534 32.596 29.046 32.778 29.4589 33.1123L30.6466 34.0765C34.1295 36.7294 36.9135 40.2182 38.7503 44.232C38.894 44.5925 38.9485 44.9833 38.909 45.3702C38.8696 45.7571 38.7373 46.1283 38.524 46.451C38.3106 46.7737 38.0226 47.0382 37.6853 47.2211C37.348 47.404 36.9718 47.4998 36.5896 47.5V47.5ZM23.4133 42.75H32.5786C31.2473 40.9838 29.71 39.3887 28.0006 38C26.2837 39.3833 24.7427 40.9789 23.4133 42.75V42.75Z" fill="#4E443C"/>
</g>
</g>
<defs>
<filter id="filter0_i_14_136" x="7.00293" y="0" width="42.0078" height="61" filterUnits="userSpaceOnUse" color-interpolation-filters="sRGB">
<feFlood flood-opacity="0" result="BackgroundImageFix"/>
<feBlend mode="normal" in="SourceGraphic" in2="BackgroundImageFix" result="shape"/>
<feColorMatrix in="SourceAlpha" type="matrix" values="0 0 0 0 0 0 0 0 0 0 0 0 0 0 0 0 0 0 127 0" result="hardAlpha"/>
<feOffset dy="4"/>
<feGaussianBlur stdDeviation="2"/>
<feComposite in2="hardAlpha" operator="arithmetic" k2="-1" k3="1"/>
<feColorMatrix type="matrix" values="0 0 0 0 0 0 0 0 0 0 0 0 0 0 0 0 0 0 0.25 0"/>
<feBlend mode="normal" in2="shape" result="effect1_innerShadow_14_136"/>
</filter>
<clipPath id="clip0_14_136">
<rect width="56" height="57" fill="white"/>
</clipPath>
</defs>
</svg>
