<svg width="164" height="200" viewBox="0 0 164 200" fill="none" xmlns="http://www.w3.org/2000/svg">
<g clip-path="url(#clip0_8_136)" filter="url(#filter0_d_8_136)">
<path d="M160 0H4V145.368H160V0Z" fill="#DF3A40"/>
<path d="M142.814 27.7757L125.368 54.0119C124.585 55.1078 124.107 56.3679 123.978 57.6785C123.849 58.9891 124.073 60.3089 124.629 61.5189L151.133 124.552H41.382C39.096 124.565 36.8296 124.159 34.713 123.356C32.5964 122.553 30.6711 121.369 29.0477 119.872C27.4242 118.376 26.1346 116.596 25.2527 114.635C24.3708 112.673 23.9141 110.57 23.9088 108.444L23.813 24.4676C24.0866 13.627 41.0536 13.4362 41.382 24.4676V103.125C41.3916 104.487 41.9663 105.792 42.9861 106.769C44.0059 107.745 45.3921 108.318 46.8552 108.367H127.161L106.349 62.8167C105.782 61.1264 105.473 59.3703 105.432 57.6C105.63 54.9757 106.403 52.4168 107.704 50.0803L126.86 20.8159C127.578 19.4906 128.668 18.3703 130.014 17.573C131.361 16.7758 132.913 16.3312 134.509 16.2863C135.64 16.2049 136.778 16.3379 137.853 16.6773C138.927 17.0168 139.917 17.5555 140.761 18.2609C141.605 18.9663 142.287 19.8237 142.765 20.7812C143.242 21.7387 143.506 22.7764 143.539 23.8314C143.558 25.1627 143.317 26.4861 142.828 27.7376" fill="white"/>
<path d="M82.2806 80.7316V24.493C82.2806 13.4998 99.5075 13.4234 99.6991 24.493V81.3932C99.6991 94.4095 89.2316 103.023 76.4379 103.023C73.3633 103.091 70.3058 102.578 67.4506 101.515C64.5954 100.452 62.0019 98.8616 59.8271 96.8394C57.6524 94.8171 55.9417 92.4055 54.7986 89.7505C53.6555 87.0955 53.1037 84.2523 53.1768 81.3932V24.493C53.1768 13.4998 70.5953 13.4998 70.5953 24.493V80.7316C70.5953 88.2767 82.3216 88.7348 82.3216 80.7316" fill="white"/>
<path d="M4.0957 161.87H12.8118V183.857H22.1436V190.804H4.0957V161.87Z" fill="black"/>
<path d="M25.6465 179.098V161.87H34.3626V178.933C34.3626 180.714 34.7183 184.671 39.3432 184.671C43.968 184.671 44.3238 180.701 44.3238 178.933V161.87H53.0399V179.098C53.0399 182.203 52.3283 191.618 39.3568 191.618C26.3854 191.618 25.6738 182.19 25.6738 179.098" fill="black"/>
<path d="M58.7046 161.87H67.4207V174.021L76.7935 161.87H87.0147L75.1926 175.879L87.3294 190.804H76.4378L67.4207 178.36V190.804H58.7046V161.87Z" fill="black"/>
<path d="M135.576 161.87H126.86V190.804H135.576V161.87Z" fill="black"/>
<path d="M141.966 161.87H150.668V183.857H160V190.804H141.966V161.87Z" fill="black"/>
<path d="M112.67 176.35C112.67 170.637 108.894 167.812 104.748 167.812C100.602 167.812 96.839 170.65 96.839 176.35C96.839 182.05 100.616 184.887 104.748 184.887C108.88 184.887 112.67 182.05 112.67 176.35ZM87.6577 176.35C87.6577 168.436 93.1309 160.7 104.761 160.7C116.392 160.7 121.865 168.436 121.865 176.35C121.865 184.264 116.392 192 104.761 192C93.1309 192 87.6577 184.264 87.6577 176.35Z" fill="black"/>
</g>
<defs>
<filter id="filter0_d_8_136" x="0" y="0" width="164" height="200" filterUnits="userSpaceOnUse" color-interpolation-filters="sRGB">
<feFlood flood-opacity="0" result="BackgroundImageFix"/>
<feColorMatrix in="SourceAlpha" type="matrix" values="0 0 0 0 0 0 0 0 0 0 0 0 0 0 0 0 0 0 127 0" result="hardAlpha"/>
<feOffset dy="4"/>
<feGaussianBlur stdDeviation="2"/>
<feComposite in2="hardAlpha" operator="out"/>
<feColorMatrix type="matrix" values="0 0 0 0 0 0 0 0 0 0 0 0 0 0 0 0 0 0 0.25 0"/>
<feBlend mode="normal" in2="BackgroundImageFix" result="effect1_dropShadow_8_136"/>
<feBlend mode="normal" in="SourceGraphic" in2="effect1_dropShadow_8_136" result="shape"/>
</filter>
<clipPath id="clip0_8_136">
<rect width="156" height="192" fill="white" transform="translate(4)"/>
</clipPath>
</defs>
</svg>
