<svg width="189" height="189" viewBox="0 0 189 189" fill="none" xmlns="http://www.w3.org/2000/svg">
<g clip-path="url(#clip0_8_157)" filter="url(#filter0_d_8_157)">
<path d="M94.5002 0.00201416C44.5203 0.00201416 4 40.5184 4 90.5C4 140.481 44.5203 180.998 94.5002 180.998C144.484 180.998 185 140.481 185 90.5C185 40.5184 144.484 0.00201416 94.5002 0.00201416ZM94.5002 176.473C47.0166 176.473 8.52894 137.982 8.52894 90.5C8.52894 43.0186 47.0166 4.52577 94.5002 4.52577C141.984 4.52577 180.474 43.0184 180.474 90.5C180.474 137.982 141.984 176.473 94.5002 176.473Z" fill="url(#paint0_linear_8_157)"/>
<path d="M181.123 90.5C181.123 138.336 142.337 177.121 94.5004 177.121C46.6633 177.121 7.88135 138.336 7.88135 90.5C7.88135 42.6611 46.6633 3.87918 94.5004 3.87918C142.337 3.87918 181.123 42.6611 181.123 90.5Z" fill="#333333"/>
<path d="M180.474 90.5C180.474 137.982 141.983 176.473 94.5 176.473C47.0165 176.473 8.52881 137.982 8.52881 90.5C8.52881 43.0186 47.0165 4.52573 94.5 4.52573C141.983 4.52573 180.474 43.0186 180.474 90.5Z" fill="url(#paint1_radial_8_157)"/>
<path d="M152.139 90.5C152.139 122.332 126.333 148.137 94.5004 148.137C62.6668 148.137 36.8608 122.332 36.8608 90.5C36.8608 58.6664 62.6668 32.8612 94.5004 32.8612C126.333 32.861 152.139 58.6666 152.139 90.5Z" fill="url(#paint2_linear_8_157)"/>
<path d="M96.8088 31.3033L102.796 15.4343V31.3033H107.344V8.57614H100.51L94.2935 24.8485H94.3526L88.1369 8.57614H81.3027V31.3033H85.8502V15.4343L91.8376 31.3033H96.8088ZM159.216 41.4943L151.447 52.8228L163.65 46.8208L166.96 50.7902L147.754 60.434L143.873 55.7355L151.318 44.5102L151.274 44.4548L138.89 49.7553L134.965 45.0883L147.915 27.9396L151.226 31.9111L143.117 42.8311L155.667 37.2337L159.216 41.4943Z" fill="black"/>
<path d="M54.249 37.1526C52.4187 35.3759 49.5944 34.8402 46.9394 36.4861C47.4477 35.1714 47.2413 33.8332 46.9727 33.091C45.8275 31.0087 45.4261 30.7454 44.4911 29.9554C41.4384 27.3979 38.2272 29.5817 35.9331 32.3157L24.8423 45.5335L42.2778 60.1612L53.9728 46.2259C56.6459 43.0409 57.0585 39.8832 54.249 37.1526ZM31.6943 43.5269L38.3562 35.5878C39.1294 34.669 40.8749 34.706 41.9942 35.6487C43.2276 36.6834 43.2314 38.1488 42.4029 39.1376L35.8151 46.9849L31.6943 43.5269ZM50.0733 44.8469L43.1284 53.1233L38.7798 49.4684L45.7765 41.1281C46.5681 40.1851 48.3319 39.9109 49.5214 40.9086C50.8612 42.0356 50.9937 43.7497 50.0733 44.8469Z" fill="#333333"/>
<path d="M96.8572 30.4252L102.845 14.5565V30.4252H107.392V7.69803H100.557L94.3419 23.9699H94.4009L88.1851 7.69803H81.3506V30.4252H85.8983V14.5565L91.8861 30.4252H96.8572Z" fill="url(#paint3_radial_8_157)"/>
<path d="M159.261 39.9694L151.495 51.2983L163.698 45.2944L167.005 49.2657L147.801 58.9096L143.92 54.2092L151.366 42.9853L151.322 42.9284L138.934 48.231L135.013 43.5617L147.964 26.4149L151.274 30.3848L143.166 41.3046L155.711 35.7094L159.261 39.9694Z" fill="url(#paint4_radial_8_157)"/>
<path d="M53.4351 36.7054C51.6087 34.9286 48.7807 34.3926 46.1295 36.0371C46.6338 34.7222 46.4277 33.3838 46.1592 32.6453C45.0138 30.5595 44.6162 30.2997 43.6732 29.5082C40.6207 26.949 37.4134 29.1341 35.123 31.8706L24.0278 45.0862L41.4638 59.7141L53.1587 45.7766C55.8288 42.5915 56.2446 39.4359 53.4351 36.7054ZM30.8813 43.0793L37.5425 35.1422C38.3124 34.2217 40.0576 34.2585 41.1807 35.1991C42.4143 36.2358 42.418 37.7029 41.5856 38.688L35.0019 46.5369L30.8813 43.0793ZM49.2633 44.3993L42.3184 52.6755L37.9621 49.0205L44.9625 40.6785C45.7542 39.7377 47.5142 39.4633 48.7037 40.4614C50.0512 41.5898 50.1839 43.3003 49.2633 44.3993Z" fill="url(#paint5_radial_8_157)"/>
<path d="M38.7793 90.5009C38.7793 59.7262 63.7273 34.7783 94.5001 34.7783C125.276 34.7783 150.221 59.7261 150.221 90.5009C150.221 121.274 125.276 146.221 94.5001 146.221C63.7269 146.221 38.7793 121.274 38.7793 90.5009Z" fill="url(#paint6_radial_8_157)"/>
<path d="M40.3813 90.5009C40.3813 60.6117 64.6108 36.3801 94.5004 36.3801C124.39 36.3801 148.623 60.6115 148.623 90.5009C148.623 120.39 124.389 144.622 94.5002 144.622C64.611 144.622 40.3813 120.39 40.3813 90.5009Z" fill="url(#paint7_radial_8_157)"/>
<path d="M40.2964 90.5009H94.5001V36.2972C64.5627 36.2972 40.2964 60.5637 40.2964 90.5009Z" fill="url(#paint8_radial_8_157)"/>
<path d="M94.5 90.5009V144.705C124.437 144.705 148.704 120.434 148.704 90.5009H94.5Z" fill="url(#paint9_radial_8_157)"/>
<path d="M149.153 89.5376H95.4611V35.846H93.5388V89.5376H39.8472V91.4601H93.5388V145.153H95.4611V91.4601H149.153V89.5376Z" fill="url(#paint10_radial_8_157)"/>
<path d="M95.4613 37.3667C124.055 37.8752 147.128 60.9465 147.64 89.5376H148.596C148.085 60.4162 124.585 36.9123 95.4609 36.404L95.4613 37.3667Z" fill="url(#paint11_linear_8_157)"/>
<path d="M41.2688 89.5305C41.7767 60.9004 64.8831 37.796 93.5134 37.2858V36.3247C64.3496 36.8346 40.8195 60.3699 40.3076 89.5303L41.2688 89.5305Z" fill="#C2D7E8"/>
<path d="M93.5391 143.634C64.946 143.126 41.8729 120.053 41.3646 91.4601H40.4038C40.9154 120.583 64.4158 144.088 93.5392 144.596L93.5391 143.634Z" fill="url(#paint12_linear_8_157)"/>
<path d="M147.64 91.4601C147.128 120.053 124.055 143.126 95.4614 143.634V144.596C124.585 144.088 148.089 120.583 148.597 91.4601H147.64Z" fill="#12404F"/>
<path d="M92.5119 36.3249V88.4829H40.3555V89.5121H93.5389V36.3249H92.5119Z" fill="url(#paint13_linear_8_157)"/>
<path d="M92.4235 144.091V92.561H40.7866V91.5449H93.4398V144.091H92.4235Z" fill="url(#paint14_linear_8_157)"/>
<path d="M96.5621 144.091V92.561H148.092V91.5449H95.5493V144.091H96.5621Z" fill="url(#paint15_linear_8_157)"/>
<path d="M96.5621 36.7854V88.3154H148.092V89.33H95.5493V36.7854H96.5621Z" fill="url(#paint16_linear_8_157)"/>
</g>
<defs>
<filter id="filter0_d_8_157" x="0" y="0" width="189" height="189" filterUnits="userSpaceOnUse" color-interpolation-filters="sRGB">
<feFlood flood-opacity="0" result="BackgroundImageFix"/>
<feColorMatrix in="SourceAlpha" type="matrix" values="0 0 0 0 0 0 0 0 0 0 0 0 0 0 0 0 0 0 127 0" result="hardAlpha"/>
<feOffset dy="4"/>
<feGaussianBlur stdDeviation="2"/>
<feComposite in2="hardAlpha" operator="out"/>
<feColorMatrix type="matrix" values="0 0 0 0 0 0 0 0 0 0 0 0 0 0 0 0 0 0 0.25 0"/>
<feBlend mode="normal" in2="BackgroundImageFix" result="effect1_dropShadow_8_157"/>
<feBlend mode="normal" in="SourceGraphic" in2="effect1_dropShadow_8_157" result="shape"/>
</filter>
<linearGradient id="paint0_linear_8_157" x1="-9.24775" y1="-9.75542" x2="182.774" y2="175.801" gradientUnits="userSpaceOnUse">
<stop stop-color="#DFF4FF"/>
<stop offset="0.098" stop-color="#D6EAF5"/>
<stop offset="0.268" stop-color="#BFD0D9"/>
<stop offset="0.488" stop-color="#98A5AC"/>
<stop offset="0.747" stop-color="#646B6E"/>
<stop offset="1" stop-color="#2B2B2B"/>
</linearGradient>
<radialGradient id="paint1_radial_8_157" cx="0" cy="0" r="1" gradientUnits="userSpaceOnUse" gradientTransform="translate(2.87196 5.9877) scale(128.576 128.576)">
<stop stop-color="white"/>
<stop offset="0.306" stop-color="#A8A8A8"/>
<stop offset="0.646" stop-color="#4F4F4F"/>
<stop offset="0.885" stop-color="#161616"/>
<stop offset="1"/>
</radialGradient>
<linearGradient id="paint2_linear_8_157" x1="160.577" y1="154.351" x2="38.2793" y2="36.1713" gradientUnits="userSpaceOnUse">
<stop stop-color="#DFF4FF"/>
<stop offset="0.086" stop-color="#D6EAF5"/>
<stop offset="0.233" stop-color="#BED0D9"/>
<stop offset="0.424" stop-color="#96A4AC"/>
<stop offset="0.652" stop-color="#5F686D"/>
<stop offset="0.907" stop-color="#1A1D1E"/>
<stop offset="1"/>
</linearGradient>
<radialGradient id="paint3_radial_8_157" cx="0" cy="0" r="1" gradientUnits="userSpaceOnUse" gradientTransform="translate(-20.2195 -7.10597) scale(308.948 308.948)">
<stop stop-color="white"/>
<stop offset="0.31" stop-color="#FDFDFD"/>
<stop offset="0.451" stop-color="#F6F6F6"/>
<stop offset="0.557" stop-color="#E9E9E9"/>
<stop offset="0.646" stop-color="#D7D7D7"/>
<stop offset="0.724" stop-color="#BFBFBF"/>
<stop offset="0.794" stop-color="#A2A2A2"/>
<stop offset="0.859" stop-color="#808080"/>
<stop offset="0.92" stop-color="#575757"/>
<stop offset="0.975" stop-color="#2B2B2B"/>
<stop offset="1" stop-color="#141414"/>
</radialGradient>
<radialGradient id="paint4_radial_8_157" cx="0" cy="0" r="1" gradientUnits="userSpaceOnUse" gradientTransform="translate(-20.2336 -7.10598) scale(308.975 308.975)">
<stop stop-color="white"/>
<stop offset="0.31" stop-color="#FDFDFD"/>
<stop offset="0.451" stop-color="#F6F6F6"/>
<stop offset="0.557" stop-color="#E9E9E9"/>
<stop offset="0.646" stop-color="#D7D7D7"/>
<stop offset="0.724" stop-color="#BFBFBF"/>
<stop offset="0.794" stop-color="#A2A2A2"/>
<stop offset="0.859" stop-color="#808080"/>
<stop offset="0.92" stop-color="#575757"/>
<stop offset="0.975" stop-color="#2B2B2B"/>
<stop offset="1" stop-color="#141414"/>
</radialGradient>
<radialGradient id="paint5_radial_8_157" cx="0" cy="0" r="1" gradientUnits="userSpaceOnUse" gradientTransform="translate(-20.2502 -7.19667) scale(309.211 309.211)">
<stop stop-color="white"/>
<stop offset="0.31" stop-color="#FDFDFD"/>
<stop offset="0.451" stop-color="#F6F6F6"/>
<stop offset="0.557" stop-color="#E9E9E9"/>
<stop offset="0.646" stop-color="#D7D7D7"/>
<stop offset="0.724" stop-color="#BFBFBF"/>
<stop offset="0.794" stop-color="#A2A2A2"/>
<stop offset="0.859" stop-color="#808080"/>
<stop offset="0.92" stop-color="#575757"/>
<stop offset="0.975" stop-color="#2B2B2B"/>
<stop offset="1" stop-color="#141414"/>
</radialGradient>
<radialGradient id="paint6_radial_8_157" cx="0" cy="0" r="1" gradientUnits="userSpaceOnUse" gradientTransform="translate(35.1128 35.7255) scale(83.3328 83.3328)">
<stop stop-color="#E6E6E6"/>
<stop offset="0.104" stop-color="#D6D6D6"/>
<stop offset="0.307" stop-color="#ADADAD"/>
<stop offset="0.588" stop-color="#6C6C6C"/>
<stop offset="0.933" stop-color="#121212"/>
<stop offset="1"/>
</radialGradient>
<radialGradient id="paint7_radial_8_157" cx="0" cy="0" r="1" gradientUnits="userSpaceOnUse" gradientTransform="translate(57.9054 46.9338) scale(121.19 121.19)">
<stop stop-color="white"/>
<stop offset="0.344" stop-color="#FDFDFD"/>
<stop offset="0.481" stop-color="#F6F6F6"/>
<stop offset="0.582" stop-color="#EAEAEA"/>
<stop offset="0.665" stop-color="#D8D8D8"/>
<stop offset="0.737" stop-color="#C2C2C2"/>
<stop offset="0.802" stop-color="#A6A6A6"/>
<stop offset="0.86" stop-color="#848484"/>
<stop offset="0.913" stop-color="#5F5F5F"/>
<stop offset="0.949" stop-color="#404040"/>
<stop offset="0.957" stop-color="#404040"/>
<stop offset="1"/>
</radialGradient>
<radialGradient id="paint8_radial_8_157" cx="0" cy="0" r="1" gradientUnits="userSpaceOnUse" gradientTransform="translate(22.3224 0.995069) scale(214.629)">
<stop offset="0.169" stop-color="white"/>
<stop offset="0.196" stop-color="#E0EFF7"/>
<stop offset="0.241" stop-color="#B2D9EC"/>
<stop offset="0.287" stop-color="#8BC5E2"/>
<stop offset="0.335" stop-color="#6BB5DA"/>
<stop offset="0.384" stop-color="#52A9D4"/>
<stop offset="0.436" stop-color="#41A0CF"/>
<stop offset="0.491" stop-color="#369BCD"/>
<stop offset="0.556" stop-color="#3399CC"/>
<stop offset="0.606" stop-color="#3396C8"/>
<stop offset="0.655" stop-color="#328EBC"/>
<stop offset="0.705" stop-color="#3180A8"/>
<stop offset="0.754" stop-color="#2F6D8C"/>
<stop offset="0.803" stop-color="#2D5468"/>
<stop offset="0.851" stop-color="#2A373D"/>
<stop offset="0.871" stop-color="#292929"/>
</radialGradient>
<radialGradient id="paint9_radial_8_157" cx="0" cy="0" r="1" gradientUnits="userSpaceOnUse" gradientTransform="translate(22.3223 0.993468) scale(214.624 214.624)">
<stop offset="0.169" stop-color="white"/>
<stop offset="0.196" stop-color="#E0EFF7"/>
<stop offset="0.241" stop-color="#B2D9EC"/>
<stop offset="0.287" stop-color="#8BC5E2"/>
<stop offset="0.335" stop-color="#6BB5DA"/>
<stop offset="0.384" stop-color="#52A9D4"/>
<stop offset="0.436" stop-color="#41A0CF"/>
<stop offset="0.491" stop-color="#369BCD"/>
<stop offset="0.556" stop-color="#3399CC"/>
<stop offset="0.606" stop-color="#3396C8"/>
<stop offset="0.655" stop-color="#328EBC"/>
<stop offset="0.705" stop-color="#3180A8"/>
<stop offset="0.754" stop-color="#2F6D8C"/>
<stop offset="0.803" stop-color="#2D5468"/>
<stop offset="0.851" stop-color="#2A373D"/>
<stop offset="0.871" stop-color="#292929"/>
</radialGradient>
<radialGradient id="paint10_radial_8_157" cx="0" cy="0" r="1" gradientUnits="userSpaceOnUse" gradientTransform="translate(36.251 36.7752) scale(81.7357 81.7357)">
<stop stop-color="#E6E6E6"/>
<stop offset="0.104" stop-color="#D6D6D6"/>
<stop offset="0.307" stop-color="#ADADAD"/>
<stop offset="0.588" stop-color="#6C6C6C"/>
<stop offset="0.933" stop-color="#121212"/>
<stop offset="1"/>
</radialGradient>
<linearGradient id="paint11_linear_8_157" x1="83.7827" y1="16.367" x2="163.491" y2="93.3916" gradientUnits="userSpaceOnUse">
<stop stop-color="#F0F4FF"/>
<stop offset="0.109" stop-color="#EBEFF9"/>
<stop offset="0.247" stop-color="#DCE0EA"/>
<stop offset="0.403" stop-color="#C4C7CF"/>
<stop offset="0.57" stop-color="#A2A4AB"/>
<stop offset="0.747" stop-color="#76777C"/>
<stop offset="0.929" stop-color="#414243"/>
<stop offset="1" stop-color="#2B2B2B"/>
</linearGradient>
<linearGradient id="paint12_linear_8_157" x1="19.0859" y1="81.3979" x2="98.7954" y2="158.424" gradientUnits="userSpaceOnUse">
<stop stop-color="#F0F4FF"/>
<stop offset="0.109" stop-color="#EBEFF9"/>
<stop offset="0.247" stop-color="#DCE0EA"/>
<stop offset="0.403" stop-color="#C4C7CF"/>
<stop offset="0.57" stop-color="#A2A4AB"/>
<stop offset="0.747" stop-color="#76777C"/>
<stop offset="0.929" stop-color="#414243"/>
<stop offset="1" stop-color="#2B2B2B"/>
</linearGradient>
<linearGradient id="paint13_linear_8_157" x1="57.6472" y1="53.9316" x2="98.9797" y2="93.8725" gradientUnits="userSpaceOnUse">
<stop stop-color="#C2D7E8"/>
<stop offset="0.134" stop-color="#BACFE1"/>
<stop offset="0.343" stop-color="#A4BACD"/>
<stop offset="0.6" stop-color="#8098AC"/>
<stop offset="0.894" stop-color="#4E697F"/>
<stop offset="1" stop-color="#3A566D"/>
</linearGradient>
<linearGradient id="paint14_linear_8_157" x1="36.9472" y1="63.7188" x2="115.854" y2="139.969" gradientUnits="userSpaceOnUse">
<stop stop-color="#F0F4FF"/>
<stop offset="0.097" stop-color="#E8EBF6"/>
<stop offset="0.257" stop-color="#D1D4DD"/>
<stop offset="0.459" stop-color="#ABAEB5"/>
<stop offset="0.695" stop-color="#78797D"/>
<stop offset="0.958" stop-color="#363637"/>
<stop offset="1" stop-color="#2B2B2B"/>
</linearGradient>
<linearGradient id="paint15_linear_8_157" x1="95.1063" y1="92.0036" x2="122.785" y2="118.75" gradientUnits="userSpaceOnUse">
<stop stop-color="#D9DEF0"/>
<stop offset="0.123" stop-color="#D4DAEC"/>
<stop offset="0.263" stop-color="#C7CFE2"/>
<stop offset="0.411" stop-color="#B0BCD1"/>
<stop offset="0.566" stop-color="#90A1B8"/>
<stop offset="0.725" stop-color="#677F99"/>
<stop offset="0.885" stop-color="#355674"/>
<stop offset="0.972" stop-color="#173D5D"/>
</linearGradient>
<linearGradient id="paint16_linear_8_157" x1="66.7923" y1="34.7797" x2="145.614" y2="110.947" gradientUnits="userSpaceOnUse">
<stop stop-color="#F0F4FF"/>
<stop offset="0.109" stop-color="#EBEFF9"/>
<stop offset="0.247" stop-color="#DCE0EA"/>
<stop offset="0.403" stop-color="#C4C7CF"/>
<stop offset="0.57" stop-color="#A2A4AB"/>
<stop offset="0.747" stop-color="#76777C"/>
<stop offset="0.929" stop-color="#414243"/>
<stop offset="1" stop-color="#2B2B2B"/>
</linearGradient>
<clipPath id="clip0_8_157">
<rect width="181" height="181" fill="white" transform="translate(4)"/>
</clipPath>
</defs>
</svg>
