<svg width="325" height="129" viewBox="0 0 325 129" fill="none" xmlns="http://www.w3.org/2000/svg">
<g clip-path="url(#clip0_113_1315)">
<path d="M93.6163 16.4974H16.7455L22.2832 0H99.154L93.6163 16.4974ZM90.8474 24.7462H13.942L8.40427 41.2436H85.2751L90.8474 24.7462ZM82.5408 49.4173H5.6354L0.0976562 65.9147H76.8992L82.5408 49.4173Z" fill="#009FDF"/>
<path d="M276.777 107.196H290.622C292.589 107.45 294.585 107.176 296.432 106.398C298.279 105.62 299.921 104.362 301.213 102.734C303.112 100.042 304.068 96.7072 303.912 93.323C304.042 91.1695 303.677 89.0148 302.85 87.0517C302.022 85.0887 300.758 83.3786 299.171 82.0747C296.601 80.2531 293.545 79.409 290.483 79.6751H276.777V107.196ZM258.607 123.806V24.7461H318.103L312.876 41.3561H276.777V63.2901H291.487C303.358 63.2901 309.519 66.3647 313.776 70.3016C316.82 73.2213 319.214 76.8498 320.778 80.9147C322.343 84.9797 323.037 89.3757 322.81 93.7729C323.044 98.5081 322.181 103.231 320.301 107.514C318.422 111.796 315.584 115.502 312.046 118.294C306.335 122.568 300.347 123.768 288.164 123.768L258.607 123.806ZM205.929 123.806V41.3186H179.486V24.7461H252.896L247.67 41.3561H224.273V123.843L205.929 123.806ZM132.658 64.415H143.041C145.164 64.5721 147.298 64.3953 149.375 63.8901C151.534 63.1426 153.396 61.6224 154.653 59.5787C155.911 57.535 156.491 55.0891 156.297 52.6418C156.585 50.2101 156.039 47.7484 154.763 45.7235C153.487 43.6986 151.57 42.2513 149.375 41.656C147.107 41.0857 144.778 40.8586 142.452 40.9811H132.658V64.415ZM132.658 81.5498V107.533H145.325C148.816 107.966 152.326 106.918 155.12 104.609C156.408 103.316 157.416 101.733 158.074 99.9698C158.732 98.2071 159.024 96.3089 158.927 94.4103C158.982 91.3769 158.133 88.4052 156.504 85.9366C153.805 82.1872 150.482 81.4748 144.806 81.4748L132.658 81.5498ZM161.938 71.0889V71.4264C165.024 72.7133 167.908 74.5092 170.487 76.7506C173.094 79.0946 175.155 82.0712 176.502 85.4391C177.849 88.807 178.445 92.4713 178.24 96.135C178.24 109.67 171.595 119.456 160.692 122.381C156.347 123.532 151.87 123.999 147.402 123.768H114.487V24.7461H143.768C148.418 24.562 153.071 25.0282 157.612 26.1334C168.203 29.208 175.16 37.1192 175.16 49.6048C175.246 52.5816 174.772 55.5462 173.767 58.3181C172.761 61.0899 171.245 63.6109 169.31 65.7273C167.256 67.9868 164.81 69.7835 162.111 71.014L161.938 71.0889Z" fill="#0A2973"/>
</g>
<defs>
<clipPath id="clip0_113_1315">
<rect width="325" height="129" fill="white"/>
</clipPath>
</defs>
</svg>
