<svg width="177" height="180" viewBox="0 0 177 180" fill="none" xmlns="http://www.w3.org/2000/svg">
<g clip-path="url(#clip0_8_180)" filter="url(#filter0_d_8_180)">
<path d="M171.152 86C171.152 132.494 134.183 170.119 88.5002 170.119C42.8174 170.119 5.84863 132.494 5.84863 86C5.84863 39.5063 42.8174 1.88126 88.5002 1.88126C134.183 1.88126 171.152 39.5063 171.152 86ZM88.5002 6.98751C45.458 6.98751 10.8658 42.1938 10.8658 86C10.8658 129.806 45.7221 165.012 88.5002 165.012C131.542 165.012 166.135 129.537 166.135 86C166.135 42.1938 131.542 6.98751 88.5002 6.98751Z" fill="url(#paint0_linear_8_180)"/>
<path d="M88.5001 6.98749C45.4579 6.98749 10.8657 42.1937 10.8657 86C10.8657 129.806 45.722 165.012 88.5001 165.012C131.542 165.012 166.134 129.537 166.134 86C166.134 42.1937 131.542 6.98749 88.5001 6.98749ZM88.5001 159.906C48.3626 159.906 15.8829 126.85 15.8829 86C15.8829 45.15 48.3626 12.0937 88.5001 12.0937C128.638 12.0937 161.117 45.15 161.117 86C161.117 126.85 128.638 159.906 88.5001 159.906Z" fill="url(#paint1_linear_8_180)"/>
<path opacity="0.4" d="M88.5 170.119C134.183 170.119 171.152 132.494 171.152 86C171.152 39.5063 134.183 1.88125 88.5 1.88125C42.8172 1.88125 5.84844 39.5063 5.84844 86C5.84844 132.494 42.8172 170.119 88.5 170.119ZM88.5 0C134.975 0 173 38.7 173 86C173 133.3 134.975 172 88.5 172C42.025 172 4 133.3 4 86C4 38.7 42.025 0 88.5 0Z" fill="url(#paint2_linear_8_180)"/>
<path d="M9.80957 86.2687C9.80957 42.1937 44.9299 5.91251 88.5002 5.91251C132.071 5.91251 167.191 41.925 167.191 86.2687C167.191 130.344 132.071 166.087 88.5002 166.087C44.9299 166.087 9.80957 130.344 9.80957 86.2687ZM34.3674 30.9063C20.3721 45.15 11.658 64.7687 11.658 86.2687C11.658 107.769 20.3721 127.387 34.1033 141.362C48.0986 155.337 67.3752 164.206 88.5002 164.206C109.625 164.206 128.902 155.606 142.633 141.362C156.628 127.387 165.078 107.769 165.078 86.2687C165.078 64.7687 156.364 45.15 142.633 30.9063C128.902 16.6625 109.625 7.79376 88.5002 7.79376C67.3752 7.79376 48.0986 16.6625 34.3674 30.9063Z" fill="white"/>
<path opacity="0.4" d="M88.4999 160.175C68.9593 160.175 50.739 152.381 37.0077 138.406C23.2765 124.431 15.6187 105.888 15.6187 86C15.6187 66.1125 23.2765 47.5688 37.0077 33.5938C50.739 19.6188 68.9593 11.825 88.4999 11.825C108.041 11.825 126.261 19.6188 139.992 33.5938C153.723 47.5688 161.381 66.1125 161.381 86C161.381 105.888 153.723 124.431 139.992 138.406C126.261 152.381 108.041 160.175 88.4999 160.175ZM88.4999 158.025C107.248 158.025 125.205 150.5 138.408 137.063C151.875 123.356 159.005 105.35 159.005 86.2688C159.005 67.1875 151.611 48.9125 138.408 35.475C124.941 21.7688 107.248 14.5125 88.4999 14.5125C69.7515 14.5125 51.7952 22.0375 38.5921 35.475C25.1249 48.6438 17.7312 66.9188 17.7312 86C17.7312 105.081 25.1249 123.356 38.328 136.794C51.7952 150.5 69.7515 158.025 88.4999 158.025Z" fill="url(#paint3_linear_8_180)"/>
<path d="M152.667 120.937C151.347 119.862 100.383 78.7437 100.383 78.7437L88.4998 9.67499C87.7076 9.94374 86.6514 10.75 86.1232 11.825L77.6732 79.0125L25.1248 120.131C25.1248 120.131 24.0686 121.475 23.5404 122.281C23.2764 122.819 23.2764 123.625 23.2764 124.431L88.2357 97.2875L153.195 124.431C153.723 123.087 153.195 121.744 152.667 120.937Z" fill="white"/>
<path d="M89.0281 88.15L88.5 100.513L148.178 124.969C150.291 126.044 151.875 125.506 153.459 124.431L89.8203 87.8813C89.5562 87.6125 89.0281 87.8813 89.0281 88.15Z" fill="#565F64"/>
<path d="M89.0283 88.15C89.0283 88.15 92.4611 94.3313 96.4221 98.6313C101.967 104.813 109.361 109.113 109.361 109.113L148.178 124.969C150.291 126.044 151.875 125.506 153.46 124.431L89.8205 87.8813C89.5564 87.6125 89.0283 87.8813 89.0283 88.15Z" fill="url(#paint4_linear_8_180)"/>
<path d="M153.195 122.013C153.195 121.744 152.931 121.475 152.667 120.938L98.2702 80.3563L90.8765 85.1938C90.8765 85.1938 91.4046 85.4625 91.6687 85.1938C92.4608 84.925 94.0452 84.6563 95.6296 85.1938C96.9499 85.7313 153.195 122.281 153.195 122.281C153.195 122.281 153.195 122.281 153.195 122.013Z" fill="#A4AAAE" fill-opacity="0.6"/>
<path d="M151.347 119.594L100.647 78.7438L98.2705 80.3563L152.667 121.206C152.403 120.669 151.875 120.131 151.347 119.594Z" fill="#333E46"/>
<path d="M89.8202 84.1188C89.5562 84.3875 89.5562 84.3875 89.5562 84.3875C89.5562 84.3875 89.5561 84.925 90.0843 84.6563C90.3483 84.3875 98.0061 80.3563 100.647 78.7438L91.4046 14.2438C91.1405 11.825 90.0843 10.75 88.2358 9.94376L89.2921 84.6563L89.8202 84.1188Z" fill="#565F64"/>
<path d="M85.3313 14.2438V17.7375L79.522 77.1312C79.522 77.9375 79.786 78.7438 80.5782 79.2812L84.011 81.9688L86.3876 16.3938L86.6517 11.2875C85.8595 11.825 85.5954 12.9 85.3313 14.2438Z" fill="#A4AAAE" fill-opacity="0.6"/>
<path d="M82.1624 83.0438L78.9936 80.3563L25.389 119.863C25.389 119.863 23.8046 120.938 23.5405 122.013L25.389 120.938L81.6343 84.925C82.6905 84.3875 82.9546 83.85 82.1624 83.0438Z" fill="#A4AAAE" fill-opacity="0.6"/>
<path d="M87.7076 88.15C87.7076 87.8813 87.4436 87.6125 87.1795 87.8813L23.2764 124.7C24.8607 125.775 26.4451 126.044 28.5576 125.238L88.2357 100.781L87.7076 88.15Z" fill="#565F64"/>
<path d="M89.5562 84.3875L89.8202 84.1188C89.5561 84.3875 89.5562 84.3875 89.5562 84.3875C89.5562 84.3875 89.5561 84.6563 89.8202 84.6563H90.0843C90.3483 84.3875 98.0061 80.3563 100.647 78.7438L99.5905 70.95L91.4046 14.2438C91.4046 13.1688 91.1405 12.3625 90.6124 11.825C90.6124 11.825 94.5733 66.1125 94.5733 72.025C94.5733 79.8188 89.5562 84.3875 89.5562 84.3875Z" fill="url(#paint5_linear_8_180)"/>
<path d="M87.7076 88.15C87.7076 87.8813 87.4436 87.6125 87.1795 87.8813L23.2764 124.7C24.8607 125.775 26.4451 126.044 28.5576 125.238L88.2357 100.781L87.7076 88.15Z" fill="url(#paint6_linear_8_180)" fill-opacity="0.8"/>
<path opacity="0.8" d="M28.558 124.969L88.2361 100.513L87.708 88.6875C86.6518 91.9125 84.8033 95.4062 79.7861 98.0938C76.0893 100.244 40.7049 117.981 28.0299 124.163C27.2377 124.7 26.1814 124.969 25.6533 125.237C26.7096 125.775 27.5018 125.506 28.558 124.969Z" fill="url(#paint7_linear_8_180)"/>
<path d="M89.8202 84.1188C89.5562 84.3875 89.5562 84.3875 89.5562 84.3875C89.5562 84.3875 89.5561 84.925 90.0843 84.6563C90.3483 84.3875 98.0061 80.3563 100.647 78.7438L91.4046 14.2438C91.1405 11.825 90.0843 10.75 88.2358 9.94376L89.2921 84.6563L89.8202 84.1188Z" fill="url(#paint8_linear_8_180)"/>
<path d="M89.8202 84.1188C89.5562 84.3875 89.5562 84.3875 89.5562 84.3875C89.5562 84.3875 89.5561 84.925 90.0843 84.6563C90.3483 84.3875 98.0061 80.3563 100.647 78.7438L91.4046 14.2438C91.1405 11.825 90.0843 10.75 88.2358 9.94376L89.2921 84.6563L89.8202 84.1188Z" fill="url(#paint9_linear_8_180)"/>
<path d="M17.4674 119.325C15.6189 115.025 5.05645 94.0625 16.6752 53.75H12.1861C9.80957 61.8125 7.96113 66.65 6.90488 73.9062C6.90488 73.9062 6.37676 76.5938 6.1127 79.55C5.84863 82.5063 5.84863 84.1187 5.84863 86C5.84863 102.125 9.80957 111.531 9.80957 111.531C14.0346 124.969 21.4283 137.063 31.4627 146.2C40.1768 153.994 53.6439 159.906 64.7346 162.056C62.8861 161.787 31.1986 148.081 17.4674 119.325Z" fill="url(#paint10_linear_8_180)"/>
<path d="M89.5563 87.6125H87.1797C87.4437 87.6125 87.7078 87.6125 87.7078 87.8812L88.2359 100.244H88.5L89.0281 87.8812C89.0281 87.6125 89.2922 87.3437 89.5563 87.6125Z" fill="url(#paint11_linear_8_180)"/>
<path d="M114.906 6.18124C142.633 16.9312 168.775 46.4937 168.775 83.85C168.775 129 133.391 165.819 88.5 165.819V170.119C133.391 170.119 171.152 132.494 171.152 86C171.152 48.9125 147.914 17.7375 114.906 6.18124Z" fill="url(#paint12_linear_8_180)"/>
<path d="M159.269 54.2875C140.784 11.0187 99.0625 8.59999 96.6859 8.33124C96.6859 8.33124 96.6859 8.33124 96.4219 8.33124C128.373 14.2437 148.706 35.475 155.836 57.7812V58.05C159.005 66.65 160.589 75.7875 160.853 85.7312C161.117 95.1375 159.005 105.619 155.044 115.294C154.78 116.637 154.516 118.25 154.252 118.25H158.477C171.152 94.0625 165.606 69.6062 159.269 54.2875Z" fill="url(#paint13_linear_8_180)"/>
<path d="M9.80957 86.2687C9.80957 42.1937 44.9299 5.91251 88.5002 5.91251C132.071 5.91251 167.191 41.925 167.191 86.2687C167.191 130.344 132.071 166.087 88.5002 166.087C44.9299 166.087 9.80957 130.344 9.80957 86.2687ZM34.3674 30.9063C20.3721 45.15 11.658 64.7687 11.658 86.2687C11.658 107.769 20.3721 127.387 34.1033 141.362C48.0986 155.337 67.3752 164.206 88.5002 164.206C109.625 164.206 128.902 155.606 142.633 141.362C156.628 127.387 165.078 107.769 165.078 86.2687C165.078 64.7687 156.364 45.15 142.633 30.9063C128.902 16.6625 109.625 7.79376 88.5002 7.79376C67.3752 7.79376 48.0986 16.6625 34.3674 30.9063Z" fill="#FBFBFB"/>
<path d="M24.8608 120.4L78.7296 80.8938C81.6343 82.5063 86.3874 84.6563 86.9155 84.6563C87.4437 84.925 87.4437 84.3875 87.4437 84.3875L80.8421 78.7438C80.0499 78.2063 79.7858 77.4 79.7858 76.5938L86.1233 11.825C85.8593 12.0938 85.8593 12.6313 85.5952 12.9C85.3312 13.4375 85.3312 13.7063 85.3312 14.2438L76.089 79.0125L25.389 119.594C25.1249 119.863 24.8608 120.131 24.8608 120.4Z" fill="#333F47"/>
</g>
<defs>
<filter id="filter0_d_8_180" x="0" y="0" width="177" height="180" filterUnits="userSpaceOnUse" color-interpolation-filters="sRGB">
<feFlood flood-opacity="0" result="BackgroundImageFix"/>
<feColorMatrix in="SourceAlpha" type="matrix" values="0 0 0 0 0 0 0 0 0 0 0 0 0 0 0 0 0 0 127 0" result="hardAlpha"/>
<feOffset dy="4"/>
<feGaussianBlur stdDeviation="2"/>
<feComposite in2="hardAlpha" operator="out"/>
<feColorMatrix type="matrix" values="0 0 0 0 0 0 0 0 0 0 0 0 0 0 0 0 0 0 0.25 0"/>
<feBlend mode="normal" in2="BackgroundImageFix" result="effect1_dropShadow_8_180"/>
<feBlend mode="normal" in="SourceGraphic" in2="effect1_dropShadow_8_180" result="shape"/>
</filter>
<linearGradient id="paint0_linear_8_180" x1="25.1252" y1="31.9813" x2="153.708" y2="137.791" gradientUnits="userSpaceOnUse">
<stop stop-color="white"/>
<stop offset="0.1" stop-color="#CDD0D0"/>
<stop offset="0.2" stop-color="#A5ACAF"/>
<stop offset="0.3" stop-color="#98A0A4"/>
<stop offset="0.4" stop-color="#828A8F"/>
<stop offset="0.5" stop-color="#667075"/>
<stop offset="0.6" stop-color="#535C63"/>
<stop offset="0.7" stop-color="#475158"/>
<stop offset="0.8" stop-color="#434D54"/>
<stop offset="1" stop-color="#475157"/>
</linearGradient>
<linearGradient id="paint1_linear_8_180" x1="29.086" y1="35.2062" x2="149.639" y2="134.704" gradientUnits="userSpaceOnUse">
<stop stop-color="#0B1F2A"/>
<stop offset="0.2" stop-color="#333F47"/>
<stop offset="0.5" stop-color="#81898D"/>
<stop offset="0.7" stop-color="#B3B8B8"/>
<stop offset="0.8" stop-color="#DEE0DD"/>
<stop offset="1" stop-color="#FBFBFB"/>
</linearGradient>
<linearGradient id="paint2_linear_8_180" x1="117.475" y1="166.913" x2="57.8232" y2="5.79979" gradientUnits="userSpaceOnUse">
<stop stop-color="#E1E3E1"/>
<stop offset="0.1" stop-color="#C1C5C4"/>
<stop offset="0.3" stop-color="#9BA1A2"/>
<stop offset="0.5" stop-color="#7D8487"/>
<stop offset="0.7" stop-color="#687074" stop-opacity="0"/>
<stop offset="0.8" stop-color="#5B6469" stop-opacity="0"/>
<stop offset="1" stop-color="#576065" stop-opacity="0"/>
</linearGradient>
<linearGradient id="paint3_linear_8_180" x1="52.0593" y1="21.7688" x2="126.881" y2="149.091" gradientUnits="userSpaceOnUse">
<stop stop-color="#E1E3E1"/>
<stop offset="0.1" stop-color="#C1C5C4"/>
<stop offset="0.3" stop-color="#9BA1A2"/>
<stop offset="0.5" stop-color="#7D8487"/>
<stop offset="0.7" stop-color="#687074" stop-opacity="0"/>
<stop offset="0.8" stop-color="#5B6469" stop-opacity="0"/>
<stop offset="1" stop-color="#576065" stop-opacity="0"/>
</linearGradient>
<linearGradient id="paint4_linear_8_180" x1="121.508" y1="105.888" x2="116.903" y2="113.341" gradientUnits="userSpaceOnUse">
<stop stop-color="#27343C"/>
<stop offset="1" stop-color="#00111E" stop-opacity="0"/>
</linearGradient>
<linearGradient id="paint5_linear_8_180" x1="108.569" y1="78.2063" x2="100.986" y2="66.2322" gradientUnits="userSpaceOnUse">
<stop offset="0.1" stop-color="#02131F"/>
<stop offset="0.9" stop-color="#02131F" stop-opacity="0"/>
</linearGradient>
<linearGradient id="paint6_linear_8_180" x1="88.4998" y1="97.825" x2="77.3802" y2="100.947" gradientUnits="userSpaceOnUse">
<stop offset="0.2" stop-color="#02131F"/>
<stop offset="0.9" stop-color="#02131F" stop-opacity="0"/>
</linearGradient>
<linearGradient id="paint7_linear_8_180" x1="58.9252" y1="112.606" x2="57.2921" y2="108.595" gradientUnits="userSpaceOnUse">
<stop stop-color="#02131F"/>
<stop offset="0.1" stop-color="#02131F"/>
<stop offset="1" stop-color="#02131F" stop-opacity="0"/>
</linearGradient>
<linearGradient id="paint8_linear_8_180" x1="98.0061" y1="46.225" x2="89.0238" y2="47.2633" gradientUnits="userSpaceOnUse">
<stop offset="0.3" stop-color="#02131F"/>
<stop offset="0.8" stop-color="#02131F" stop-opacity="0"/>
</linearGradient>
<linearGradient id="paint9_linear_8_180" x1="98.2702" y1="45.9563" x2="92.1933" y2="46.7351" gradientUnits="userSpaceOnUse">
<stop offset="0.4" stop-color="#27343C"/>
<stop offset="1" stop-color="#3B474E" stop-opacity="0"/>
</linearGradient>
<linearGradient id="paint10_linear_8_180" x1="2.94395" y1="88.4187" x2="77.2593" y2="130.555" gradientUnits="userSpaceOnUse">
<stop stop-color="#25323B" stop-opacity="0"/>
<stop offset="0.1" stop-color="#27343C"/>
</linearGradient>
<linearGradient id="paint11_linear_8_180" x1="88.5" y1="100.512" x2="88.5" y2="87.6125" gradientUnits="userSpaceOnUse">
<stop offset="0.3" stop-color="#A5ABAF"/>
<stop offset="1" stop-color="#A5ABAF" stop-opacity="0"/>
</linearGradient>
<linearGradient id="paint12_linear_8_180" x1="129.958" y1="6.18124" x2="129.958" y2="170.119" gradientUnits="userSpaceOnUse">
<stop stop-color="#6B7378"/>
<stop offset="0.2" stop-color="#333F47"/>
<stop offset="0.5" stop-color="#27343C"/>
<stop offset="0.8" stop-color="#333F47"/>
<stop offset="1" stop-color="#434D54"/>
</linearGradient>
<linearGradient id="paint13_linear_8_180" x1="155.308" y1="21.7687" x2="118.798" y2="74.3832" gradientUnits="userSpaceOnUse">
<stop offset="0.7" stop-color="#49545B"/>
<stop offset="0.8" stop-color="white" stop-opacity="0"/>
</linearGradient>
<clipPath id="clip0_8_180">
<rect width="169" height="172" fill="white" transform="translate(4)"/>
</clipPath>
</defs>
</svg>
