<svg width="415" height="66" viewBox="0 0 415 66" fill="none" xmlns="http://www.w3.org/2000/svg">
<path d="M185.559 19.0517L194.21 12.8432H165.248V50.0338H194.21V43.8252H173.523V34.3297H191.201V28.1211H173.523V19.0517H185.559Z" fill="#21A038"/>
<path d="M143.369 27.3298H133.339V19.0517H149.387L158.038 12.8432H125.064V50.0338H142.303C151.958 50.0338 157.537 45.7729 157.537 38.347C157.537 31.2254 152.522 27.3298 143.369 27.3298ZM141.99 43.8252H133.339V33.5384H141.99C147.256 33.5384 149.701 35.2427 149.701 38.7122C149.701 42.1818 147.068 43.8252 141.99 43.8252Z" fill="#21A038"/>
<path d="M217.655 12.8432H201.921V50.0338H210.196V39.5033H217.718C227.748 39.5033 234.017 34.3905 234.017 26.1733C234.017 17.9561 227.748 12.8432 217.655 12.8432ZM217.468 33.2949H210.133V19.0517H217.468C222.796 19.0517 225.68 21.6082 225.68 26.1733C225.68 30.7384 222.796 33.2949 217.468 33.2949Z" fill="#21A038"/>
<path d="M110.896 41.9989C108.703 43.1555 106.258 43.7642 103.75 43.7642C96.2901 43.7642 90.8987 38.5904 90.8987 31.4689C90.8987 24.3473 96.2901 19.1735 103.75 19.1735C106.446 19.1126 109.079 19.9648 111.273 21.4865L117.228 17.2257L116.852 16.8605C113.404 13.878 108.765 12.3563 103.499 12.3563C97.7946 12.3563 92.5914 14.2432 88.8302 17.6518C85.0686 21.1822 82.9372 26.1125 83.0629 31.2254C83 36.3992 85.0686 41.3906 88.8302 45.0423C92.7795 48.6339 98.0452 50.6422 103.437 50.5207C109.392 50.5207 114.595 48.512 118.106 44.8598L112.777 41.0252L110.896 41.9989Z" fill="#21A038"/>
<path d="M333.504 12.9041V50.0944H341.779V34.8775H359.395V50.0944H367.67V12.9041H359.395V28.182H341.779V12.9041H333.504ZM319.274 50.0944H327.988L311.814 12.9041H303.414L286.926 50.0944H295.264L298.587 42.6076H316.14L319.274 50.0944ZM301.094 36.3992L307.489 21.4865L313.506 36.3992H301.094ZM386.226 35.0601H391.366L404.028 50.0338H414.685L397.76 30.7993L412.554 12.8432H403.09L390.802 28.7907H386.226V12.8432H377.951V50.0338H386.226V35.0601ZM259.594 27.3907V19.1126H281.222V12.9041H251.319V50.0944H268.559C278.213 50.0944 283.792 45.8339 283.792 38.4078C283.792 31.2862 278.777 27.3907 269.624 27.3907H259.594ZM259.594 43.8861V33.5992H268.245C273.511 33.5992 275.956 35.3035 275.956 38.7731C275.956 42.2427 273.386 43.9467 268.245 43.9467H259.594V43.8861Z" fill="#21A038"/>
<path d="M57.1723 12.5997C58.6768 14.4866 59.9307 16.5562 60.9964 18.7474L32.0342 39.5033L19.8726 32.0775V23.1908L31.9715 30.5558L57.1723 12.5997Z" fill="#21A038"/>
<path d="M7.52258 31.4689C7.52258 31.0428 7.52258 30.6776 7.58528 30.2515L0.250677 29.8863C0.250677 30.3733 0.187988 30.9211 0.187988 31.408C0.187988 39.9296 3.76125 47.6598 9.5286 53.2597L14.7318 48.2076C10.2809 43.9467 7.52258 38.0427 7.52258 31.4689Z" fill="url(#paint0_linear_113_1301)"/>
<path d="M31.9714 7.73028C32.4102 7.73028 32.7864 7.73028 33.2252 7.79116L33.6013 0.669571C33.0998 0.669571 32.5356 0.608704 32.0341 0.608704C23.2577 0.608704 15.2962 4.07819 9.52881 9.67806L14.732 14.7301C19.1202 10.4085 25.2637 7.73028 31.9714 7.73028Z" fill="url(#paint1_linear_113_1301)"/>
<path d="M31.9712 55.2075C31.5324 55.2075 31.1562 55.2075 30.7174 55.1465L30.3413 62.2683C30.8428 62.2683 31.407 62.3289 31.9085 62.3289C40.6848 62.3289 48.6464 58.8596 54.4136 53.2597L49.2104 48.2076C44.8223 52.59 38.7416 55.2075 31.9712 55.2075Z" fill="url(#paint2_linear_113_1301)"/>
<path d="M45.7627 11.8693L51.9688 7.42593C46.515 3.16515 39.5565 0.547821 31.9712 0.547821V7.66939C37.1117 7.73027 41.8762 9.25196 45.7627 11.8693Z" fill="url(#paint3_linear_113_1301)"/>
<path d="M63.8175 31.4688C63.8175 29.5819 63.6293 27.7559 63.3159 25.9298L56.4829 30.8602C56.4829 31.0428 56.4829 31.2862 56.4829 31.4688C56.4829 38.4687 53.3482 44.7383 48.396 49.0597L53.3482 54.3553C59.7424 48.7554 63.8175 40.5384 63.8175 31.4688Z" fill="#21A038"/>
<path d="M31.9714 55.2074C24.7622 55.2074 18.3052 52.1641 13.8543 47.3554L8.40039 52.1641C14.2305 58.4333 22.6307 62.3288 31.9714 62.3288V55.2074Z" fill="url(#paint4_linear_113_1301)"/>
<path d="M15.6094 13.878L10.657 8.5824C4.20008 14.2431 0.187988 22.3995 0.187988 31.4689H7.52258C7.52258 24.5299 10.657 18.1996 15.6094 13.878Z" fill="url(#paint5_linear_113_1301)"/>
<defs>
<linearGradient id="paint0_linear_113_1301" x1="8.74595" y1="52.3931" x2="1.7398" y2="31.2147" gradientUnits="userSpaceOnUse">
<stop offset="0.1444" stop-color="#F2E913"/>
<stop offset="0.3037" stop-color="#E7E518"/>
<stop offset="0.5823" stop-color="#CADB26"/>
<stop offset="0.891" stop-color="#A3CD39"/>
</linearGradient>
<linearGradient id="paint1_linear_113_1301" x1="11.6195" y1="8.87445" x2="30.4456" y2="1.37187" gradientUnits="userSpaceOnUse">
<stop offset="0.0592" stop-color="#0FA8E0"/>
<stop offset="0.5385" stop-color="#0099F9"/>
<stop offset="0.9234" stop-color="#0291EB"/>
</linearGradient>
<linearGradient id="paint2_linear_113_1301" x1="29.9106" y1="56.2724" x2="52.4906" y2="50.9358" gradientUnits="userSpaceOnUse">
<stop offset="0.1226" stop-color="#A3CD39"/>
<stop offset="0.2846" stop-color="#86C339"/>
<stop offset="0.8693" stop-color="#21A038"/>
</linearGradient>
<linearGradient id="paint3_linear_113_1301" x1="30.4642" y1="5.08374" x2="49.1821" y2="11.1234" gradientUnits="userSpaceOnUse">
<stop offset="0.0566" stop-color="#0291EB"/>
<stop offset="0.79" stop-color="#0C8ACB"/>
</linearGradient>
<linearGradient id="paint4_linear_113_1301" x1="10.2653" y1="53.2923" x2="30.3151" y2="61.1265" gradientUnits="userSpaceOnUse">
<stop offset="0.1324" stop-color="#F2E913"/>
<stop offset="0.2977" stop-color="#EBE716"/>
<stop offset="0.5306" stop-color="#D9E01F"/>
<stop offset="0.8023" stop-color="#BBD62D"/>
<stop offset="0.9829" stop-color="#A3CD39"/>
</linearGradient>
<linearGradient id="paint5_linear_113_1301" x1="5.80791" y1="32.329" x2="13.394" y2="11.6918" gradientUnits="userSpaceOnUse">
<stop offset="0.0698" stop-color="#A3CD39"/>
<stop offset="0.2599" stop-color="#81C55F"/>
<stop offset="0.9216" stop-color="#0FA8E0"/>
</linearGradient>
</defs>
</svg>
