<svg width="53" height="53" viewBox="0 0 53 53" fill="none" xmlns="http://www.w3.org/2000/svg">
<path d="M26.0056 24.2869C30.4739 24.2869 34.0962 20.6719 34.0962 16.2125C34.0962 11.7532 30.4739 8.13818 26.0056 8.13818C21.5372 8.13818 17.9149 11.7532 17.9149 16.2125C17.9149 20.6719 21.5372 24.2869 26.0056 24.2869Z" stroke="#3E778C" stroke-opacity="0.9" stroke-width="5"/>
<path d="M8.66846 38.7228C8.66846 33.9353 12.5485 30.0543 17.336 30.0543C20.2339 30.0543 23.3894 30.0543 26.0056 30.0543C28.6218 30.0543 31.7773 30.0543 34.6752 30.0543C39.4627 30.0543 43.3427 33.9353 43.3427 38.7228V39.5617C43.3427 41.9555 41.4022 43.896 39.0084 43.896H13.0027C10.609 43.896 8.66846 41.9555 8.66846 39.5617V38.7228Z" stroke="#3E778C" stroke-opacity="0.9" stroke-width="5"/>
</svg>
